<svg xmlns="http://www.w3.org/2000/svg" xmlns:xlink="http://www.w3.org/1999/xlink" contentStyleType="text/css" data-diagram-type="CLASS" height="1072px" preserveAspectRatio="none" style="width:2681px;height:1072px;background:#FFFFFF;" version="1.1" viewBox="0 0 2681 1072" width="2681px" zoomAndPan="magnify"><defs/><g><!--class Person--><g class="entity" data-entity="Person" data-source-line="2" data-uid="ent0002" id="entity_Person"><rect fill="#F1F1F1" height="145.7813" rx="2.5" ry="2.5" style="stroke:#181818;stroke-width:0.5;" width="174.5996" x="729.01" y="303.12"/><ellipse cx="788.2878" cy="319.12" fill="#A9DCDF" rx="11" ry="11" style="stroke:#181818;stroke-width:1;"/><path d="M788.3972,314.4637 L787.241,319.5419 L789.5691,319.5419 L788.3972,314.4637 Z M786.9128,312.2294 L789.8972,312.2294 L793.2566,324.62 L790.8035,324.62 L790.0378,321.5575 L786.7566,321.5575 L786.0066,324.62 L783.5691,324.62 L786.9128,312.2294 Z " fill="#000000"/><text fill="#000000" font-family="sans-serif" font-size="14" font-style="italic" lengthAdjust="spacing" textLength="47.5439" x="808.7878" y="323.9667">Person</text><line style="stroke:#181818;stroke-width:0.5;" x1="730.01" x2="902.6096" y1="335.12" y2="335.12"/><text fill="#000000" font-family="sans-serif" font-size="14" lengthAdjust="spacing" textLength="117.0039" x="735.01" y="352.1151">-personId: String</text><text fill="#000000" font-family="sans-serif" font-size="14" lengthAdjust="spacing" textLength="124.6602" x="735.01" y="368.412">-firstName: String</text><text fill="#000000" font-family="sans-serif" font-size="14" lengthAdjust="spacing" textLength="122.5547" x="735.01" y="384.7089">-lastName: String</text><text fill="#000000" font-family="sans-serif" font-size="14" lengthAdjust="spacing" textLength="128.8096" x="735.01" y="401.0057">-dateOfBirth: Date</text><text fill="#000000" font-family="sans-serif" font-size="14" lengthAdjust="spacing" textLength="130.4023" x="735.01" y="417.3026">-nationality: String</text><line style="stroke:#181818;stroke-width:0.5;" x1="730.01" x2="902.6096" y1="424.6044" y2="424.6044"/><text fill="#000000" font-family="sans-serif" font-size="14" lengthAdjust="spacing" textLength="162.5996" x="735.01" y="441.5995">+getFullName(): String</text></g><!--class Player--><g class="entity" data-entity="Player" data-source-line="11" data-uid="ent0003" id="entity_Player"><rect fill="#F1F1F1" height="178.375" rx="2.5" ry="2.5" style="stroke:#181818;stroke-width:0.5;" width="472.8447" x="579.89" y="582.94"/><ellipse cx="790.2796" cy="598.94" fill="#ADD1B2" rx="11" ry="11" style="stroke:#181818;stroke-width:1;"/><path d="M793.2484,604.5806 Q792.6703,604.8775 792.0296,605.0181 Q791.389,605.1744 790.6859,605.1744 Q788.1859,605.1744 786.8578,603.5337 Q785.5453,601.8775 785.5453,598.7525 Q785.5453,595.6275 786.8578,593.9712 Q788.1859,592.315 790.6859,592.315 Q791.389,592.315 792.0296,592.4712 Q792.6859,592.6275 793.2484,592.9244 L793.2484,595.6431 Q792.6234,595.065 792.0296,594.7994 Q791.4359,594.5181 790.8109,594.5181 Q789.4671,594.5181 788.7796,595.5962 Q788.0921,596.6587 788.0921,598.7525 Q788.0921,600.8462 788.7796,601.9244 Q789.4671,602.9869 790.8109,602.9869 Q791.4359,602.9869 792.0296,602.7212 Q792.6234,602.44 793.2484,601.8619 L793.2484,604.5806 Z " fill="#000000"/><text fill="#000000" font-family="sans-serif" font-size="14" lengthAdjust="spacing" textLength="43.5654" x="810.7796" y="603.7867">Player</text><line style="stroke:#181818;stroke-width:0.5;" x1="580.89" x2="1051.7347" y1="614.94" y2="614.94"/><text fill="#000000" font-family="sans-serif" font-size="14" lengthAdjust="spacing" textLength="163.2695" x="585.89" y="631.9351">-jerseyNumber: Integer</text><text fill="#000000" font-family="sans-serif" font-size="14" lengthAdjust="spacing" textLength="153.542" x="585.89" y="648.232">-marketValue: Double</text><line style="stroke:#181818;stroke-width:0.5;" x1="580.89" x2="1051.7347" y1="655.5337" y2="655.5337"/><text fill="#000000" font-family="sans-serif" font-size="14" lengthAdjust="spacing" textLength="234.9648" x="585.89" y="672.5289">-playerId: String (FK from Person)</text><text fill="#000000" font-family="sans-serif" font-size="14" lengthAdjust="spacing" textLength="137.9424" x="585.89" y="688.8257">-teamId: String (FK)</text><text fill="#000000" font-family="sans-serif" font-size="14" lengthAdjust="spacing" textLength="460.8447" x="585.89" y="705.1226">-position: String (e.g., Forward, Midfielder, Defender, Goalkeeper)</text><text fill="#000000" font-family="sans-serif" font-size="14" lengthAdjust="spacing" textLength="311.3838" x="585.89" y="721.4195">-status: String (e.g., Active, Injured, Loaned)</text><text fill="#000000" font-family="sans-serif" font-size="14" lengthAdjust="spacing" textLength="94.0352" x="585.89" y="737.7164">+train(): void</text><text fill="#000000" font-family="sans-serif" font-size="14" lengthAdjust="spacing" textLength="133.8066" x="585.89" y="754.0132">+playMatch(): void</text></g><!--class Coach--><g class="entity" data-entity="Coach" data-source-line="22" data-uid="ent0004" id="entity_Coach"><rect fill="#F1F1F1" height="145.7813" rx="2.5" ry="2.5" style="stroke:#181818;stroke-width:0.5;" width="487.9795" x="1087.32" y="599.24"/><ellipse cx="1305.3146" cy="615.24" fill="#ADD1B2" rx="11" ry="11" style="stroke:#181818;stroke-width:1;"/><path d="M1308.2834,620.8806 Q1307.7053,621.1775 1307.0646,621.3181 Q1306.424,621.4744 1305.7209,621.4744 Q1303.2209,621.4744 1301.8928,619.8338 Q1300.5803,618.1775 1300.5803,615.0525 Q1300.5803,611.9275 1301.8928,610.2713 Q1303.2209,608.615 1305.7209,608.615 Q1306.424,608.615 1307.0646,608.7713 Q1307.7209,608.9275 1308.2834,609.2244 L1308.2834,611.9431 Q1307.6584,611.365 1307.0646,611.0994 Q1306.4709,610.8181 1305.8459,610.8181 Q1304.5021,610.8181 1303.8146,611.8963 Q1303.1271,612.9588 1303.1271,615.0525 Q1303.1271,617.1463 1303.8146,618.2244 Q1304.5021,619.2869 1305.8459,619.2869 Q1306.4709,619.2869 1307.0646,619.0213 Q1307.6584,618.74 1308.2834,618.1619 L1308.2834,620.8806 Z " fill="#000000"/><text fill="#000000" font-family="sans-serif" font-size="14" lengthAdjust="spacing" textLength="43.4902" x="1325.8146" y="620.0867">Coach</text><line style="stroke:#181818;stroke-width:0.5;" x1="1088.32" x2="1574.2995" y1="631.24" y2="631.24"/><text fill="#000000" font-family="sans-serif" font-size="14" lengthAdjust="spacing" textLength="142.0713" x="1093.32" y="648.2351">-licenseLevel: String</text><line style="stroke:#181818;stroke-width:0.5;" x1="1088.32" x2="1574.2995" y1="655.5369" y2="655.5369"/><text fill="#000000" font-family="sans-serif" font-size="14" lengthAdjust="spacing" textLength="232.3672" x="1093.32" y="672.532">-coachId: String (FK from Person)</text><text fill="#000000" font-family="sans-serif" font-size="14" lengthAdjust="spacing" textLength="137.9424" x="1093.32" y="688.8289">-teamId: String (FK)</text><text fill="#000000" font-family="sans-serif" font-size="14" lengthAdjust="spacing" textLength="475.9795" x="1093.32" y="705.1257">-role: String (e.g., Head Coach, Assistant Coach, Goalkeeper Coach)</text><text fill="#000000" font-family="sans-serif" font-size="14" lengthAdjust="spacing" textLength="174.8291" x="1093.32" y="721.4226">+conductTraining(): void</text><text fill="#000000" font-family="sans-serif" font-size="14" lengthAdjust="spacing" textLength="147.1572" x="1093.32" y="737.7195">+selectSquad(): void</text></g><!--class Staff--><g class="entity" data-entity="Staff" data-source-line="31" data-uid="ent0005" id="entity_Staff"><rect fill="#F1F1F1" height="129.4844" rx="2.5" ry="2.5" style="stroke:#181818;stroke-width:0.5;" width="462.4678" x="82.08" y="607.38"/><ellipse cx="292.6576" cy="623.38" fill="#ADD1B2" rx="11" ry="11" style="stroke:#181818;stroke-width:1;"/><path d="M295.6264,629.0206 Q295.0483,629.3175 294.4076,629.4581 Q293.767,629.6144 293.0639,629.6144 Q290.5639,629.6144 289.2358,627.9737 Q287.9233,626.3175 287.9233,623.1925 Q287.9233,620.0675 289.2358,618.4112 Q290.5639,616.755 293.0639,616.755 Q293.767,616.755 294.4076,616.9112 Q295.0639,617.0675 295.6264,617.3644 L295.6264,620.0831 Q295.0014,619.505 294.4076,619.2394 Q293.8139,618.9581 293.1889,618.9581 Q291.8451,618.9581 291.1576,620.0362 Q290.4701,621.0987 290.4701,623.1925 Q290.4701,625.2862 291.1576,626.3644 Q291.8451,627.4269 293.1889,627.4269 Q293.8139,627.4269 294.4076,627.1612 Q295.0014,626.88 295.6264,626.3019 L295.6264,629.0206 Z " fill="#000000"/><text fill="#000000" font-family="sans-serif" font-size="14" lengthAdjust="spacing" textLength="32.8125" x="313.1576" y="628.2267">Staff</text><line style="stroke:#181818;stroke-width:0.5;" x1="83.08" x2="543.5478" y1="639.38" y2="639.38"/><text fill="#000000" font-family="sans-serif" font-size="14" lengthAdjust="spacing" textLength="138.8242" x="88.08" y="656.3751">-department: String</text><line style="stroke:#181818;stroke-width:0.5;" x1="83.08" x2="543.5478" y1="663.6769" y2="663.6769"/><text fill="#000000" font-family="sans-serif" font-size="14" lengthAdjust="spacing" textLength="222.1748" x="88.08" y="680.672">-staffId: String (FK from Person)</text><text fill="#000000" font-family="sans-serif" font-size="14" lengthAdjust="spacing" textLength="130.9697" x="88.08" y="696.9689">-clubId: String (FK)</text><text fill="#000000" font-family="sans-serif" font-size="14" lengthAdjust="spacing" textLength="450.4678" x="88.08" y="713.2657">-role: String (e.g., Doctor, Physiotherapist, Scout, Administrator)</text><text fill="#000000" font-family="sans-serif" font-size="14" lengthAdjust="spacing" textLength="162.5313" x="88.08" y="729.5626">+performDuties(): void</text></g><!--class Club--><g class="entity" data-entity="Club" data-source-line="39" data-uid="ent0006" id="entity_Club"><rect fill="#F1F1F1" height="194.6719" rx="2.5" ry="2.5" style="stroke:#181818;stroke-width:0.5;" width="280.4473" x="1191.09" y="7"/><ellipse cx="1311.3512" cy="23" fill="#ADD1B2" rx="11" ry="11" style="stroke:#181818;stroke-width:1;"/><path d="M1314.32,28.6406 Q1313.7419,28.9375 1313.1012,29.0781 Q1312.4606,29.2344 1311.7575,29.2344 Q1309.2575,29.2344 1307.9294,27.5938 Q1306.6169,25.9375 1306.6169,22.8125 Q1306.6169,19.6875 1307.9294,18.0313 Q1309.2575,16.375 1311.7575,16.375 Q1312.4606,16.375 1313.1012,16.5313 Q1313.7575,16.6875 1314.32,16.9844 L1314.32,19.7031 Q1313.695,19.125 1313.1012,18.8594 Q1312.5075,18.5781 1311.8825,18.5781 Q1310.5387,18.5781 1309.8512,19.6563 Q1309.1637,20.7188 1309.1637,22.8125 Q1309.1637,24.9063 1309.8512,25.9844 Q1310.5387,27.0469 1311.8825,27.0469 Q1312.5075,27.0469 1313.1012,26.7813 Q1313.695,26.5 1314.32,25.9219 L1314.32,28.6406 Z " fill="#000000"/><text fill="#000000" font-family="sans-serif" font-size="14" lengthAdjust="spacing" textLength="31.4248" x="1331.8512" y="27.8467">Club</text><line style="stroke:#181818;stroke-width:0.5;" x1="1192.09" x2="1470.5373" y1="39" y2="39"/><text fill="#000000" font-family="sans-serif" font-size="14" lengthAdjust="spacing" textLength="98.3623" x="1197.09" y="55.9951">-clubId: String</text><text fill="#000000" font-family="sans-serif" font-size="14" lengthAdjust="spacing" textLength="95.7031" x="1197.09" y="72.292">-name: String</text><text fill="#000000" font-family="sans-serif" font-size="14" lengthAdjust="spacing" textLength="142.9189" x="1197.09" y="88.5889">-foundingDate: Date</text><text fill="#000000" font-family="sans-serif" font-size="14" lengthAdjust="spacing" textLength="113.4629" x="1197.09" y="104.8857">-budget: Double</text><text fill="#000000" font-family="sans-serif" font-size="14" lengthAdjust="spacing" textLength="103.4551" x="1197.09" y="121.1826">-league: String</text><line style="stroke:#181818;stroke-width:0.5;" x1="1192.09" x2="1470.5373" y1="128.4844" y2="128.4844"/><text fill="#000000" font-family="sans-serif" font-size="14" lengthAdjust="spacing" textLength="158.2725" x="1197.09" y="145.4795">-stadiumId: String (FK)</text><text fill="#000000" font-family="sans-serif" font-size="14" lengthAdjust="spacing" textLength="168.9707" x="1197.09" y="161.7764">+manageBudget(): void</text><text fill="#000000" font-family="sans-serif" font-size="14" lengthAdjust="spacing" textLength="268.4473" x="1197.09" y="178.0732">+signSponsor(sponsor: Sponsor): void</text><text fill="#000000" font-family="sans-serif" font-size="14" lengthAdjust="spacing" textLength="188.8018" x="1197.09" y="194.3701">+getTeams(): List&lt;Team&gt;</text></g><!--class Team--><g class="entity" data-entity="Team" data-source-line="51" data-uid="ent0007" id="entity_Team"><rect fill="#F1F1F1" height="178.375" rx="2.5" ry="2.5" style="stroke:#181818;stroke-width:0.5;" width="365.1924" x="1148.72" y="286.82"/><ellipse cx="1307.3753" cy="302.82" fill="#ADD1B2" rx="11" ry="11" style="stroke:#181818;stroke-width:1;"/><path d="M1310.344,308.4606 Q1309.7659,308.7575 1309.1253,308.8981 Q1308.4846,309.0544 1307.7815,309.0544 Q1305.2815,309.0544 1303.9534,307.4137 Q1302.6409,305.7575 1302.6409,302.6325 Q1302.6409,299.5075 1303.9534,297.8512 Q1305.2815,296.195 1307.7815,296.195 Q1308.4846,296.195 1309.1253,296.3512 Q1309.7815,296.5075 1310.344,296.8044 L1310.344,299.5231 Q1309.719,298.945 1309.1253,298.6794 Q1308.5315,298.3981 1307.9065,298.3981 Q1306.5628,298.3981 1305.8753,299.4762 Q1305.1878,300.5387 1305.1878,302.6325 Q1305.1878,304.7262 1305.8753,305.8044 Q1306.5628,306.8669 1307.9065,306.8669 Q1308.5315,306.8669 1309.1253,306.6012 Q1309.719,306.32 1310.344,305.7419 L1310.344,308.4606 Z " fill="#000000"/><text fill="#000000" font-family="sans-serif" font-size="14" lengthAdjust="spacing" textLength="39.3818" x="1327.8753" y="307.6667">Team</text><line style="stroke:#181818;stroke-width:0.5;" x1="1149.72" x2="1512.9124" y1="318.82" y2="318.82"/><text fill="#000000" font-family="sans-serif" font-size="14" lengthAdjust="spacing" textLength="105.335" x="1154.72" y="335.8151">-teamId: String</text><text fill="#000000" font-family="sans-serif" font-size="14" lengthAdjust="spacing" textLength="103.4551" x="1154.72" y="352.112">-league: String</text><text fill="#000000" font-family="sans-serif" font-size="14" lengthAdjust="spacing" textLength="109.5732" x="1154.72" y="368.4089">-division: String</text><line style="stroke:#181818;stroke-width:0.5;" x1="1149.72" x2="1512.9124" y1="375.7106" y2="375.7106"/><text fill="#000000" font-family="sans-serif" font-size="14" lengthAdjust="spacing" textLength="130.9697" x="1154.72" y="392.7057">-clubId: String (FK)</text><text fill="#000000" font-family="sans-serif" font-size="14" lengthAdjust="spacing" textLength="335.5146" x="1154.72" y="409.0026">-name: String (e.g., Senior Men, U18, Women's)</text><text fill="#000000" font-family="sans-serif" font-size="14" lengthAdjust="spacing" textLength="228.1084" x="1154.72" y="425.2995">+addPlayer(player: Player): void</text><text fill="#000000" font-family="sans-serif" font-size="14" lengthAdjust="spacing" textLength="255.2266" x="1154.72" y="441.5964">+removePlayer(player: Player): void</text><text fill="#000000" font-family="sans-serif" font-size="14" lengthAdjust="spacing" textLength="353.1924" x="1154.72" y="457.8932">+scheduleTraining(session: TrainingSession): void</text></g><!--class Match--><g class="entity" data-entity="Match" data-source-line="62" data-uid="ent0008" id="entity_Match"><rect fill="#F1F1F1" height="243.5625" rx="2.5" ry="2.5" style="stroke:#181818;stroke-width:0.5;" width="441.8164" x="2069.4" y="550.35"/><ellipse cx="2264.6993" cy="566.35" fill="#ADD1B2" rx="11" ry="11" style="stroke:#181818;stroke-width:1;"/><path d="M2267.6681,571.9906 Q2267.0899,572.2875 2266.4493,572.4281 Q2265.8087,572.5844 2265.1056,572.5844 Q2262.6056,572.5844 2261.2774,570.9437 Q2259.9649,569.2875 2259.9649,566.1625 Q2259.9649,563.0375 2261.2774,561.3812 Q2262.6056,559.725 2265.1056,559.725 Q2265.8087,559.725 2266.4493,559.8812 Q2267.1056,560.0375 2267.6681,560.3344 L2267.6681,563.0531 Q2267.0431,562.475 2266.4493,562.2094 Q2265.8556,561.9281 2265.2306,561.9281 Q2263.8868,561.9281 2263.1993,563.0062 Q2262.5118,564.0687 2262.5118,566.1625 Q2262.5118,568.2562 2263.1993,569.3344 Q2263.8868,570.3969 2265.2306,570.3969 Q2265.8556,570.3969 2266.4493,570.1312 Q2267.0431,569.85 2267.6681,569.2719 L2267.6681,571.9906 Z " fill="#000000"/><text fill="#000000" font-family="sans-serif" font-size="14" lengthAdjust="spacing" textLength="42.7178" x="2285.1993" y="571.1967">Match</text><line style="stroke:#181818;stroke-width:0.5;" x1="2070.4" x2="2510.2164" y1="582.35" y2="582.35"/><text fill="#000000" font-family="sans-serif" font-size="14" lengthAdjust="spacing" textLength="113.292" x="2075.4" y="599.3451">-matchId: String</text><text fill="#000000" font-family="sans-serif" font-size="14" lengthAdjust="spacing" textLength="125.4189" x="2075.4" y="615.642">-matchDate: Date</text><text fill="#000000" font-family="sans-serif" font-size="14" lengthAdjust="spacing" textLength="127.8799" x="2075.4" y="631.9389">-matchTime: Time</text><text fill="#000000" font-family="sans-serif" font-size="14" lengthAdjust="spacing" textLength="143.7871" x="2075.4" y="648.2357">-homeScore: Integer</text><text fill="#000000" font-family="sans-serif" font-size="14" lengthAdjust="spacing" textLength="140.9912" x="2075.4" y="664.5326">-awayScore: Integer</text><text fill="#000000" font-family="sans-serif" font-size="14" lengthAdjust="spacing" textLength="139.5967" x="2075.4" y="680.8295">-competition: String</text><line style="stroke:#181818;stroke-width:0.5;" x1="2070.4" x2="2510.2164" y1="688.1312" y2="688.1312"/><text fill="#000000" font-family="sans-serif" font-size="14" lengthAdjust="spacing" textLength="180.6943" x="2075.4" y="705.1264">-homeTeamId: String (FK)</text><text fill="#000000" font-family="sans-serif" font-size="14" lengthAdjust="spacing" textLength="177.8984" x="2075.4" y="721.4232">-awayTeamId: String (FK)</text><text fill="#000000" font-family="sans-serif" font-size="14" lengthAdjust="spacing" textLength="158.2725" x="2075.4" y="737.7201">-stadiumId: String (FK)</text><text fill="#000000" font-family="sans-serif" font-size="14" lengthAdjust="spacing" textLength="150.8418" x="2075.4" y="754.017">-seasonId: String (FK)</text><text fill="#000000" font-family="sans-serif" font-size="14" lengthAdjust="spacing" textLength="429.8164" x="2075.4" y="770.3139">+recordScore(homeScore: Integer, awayScore: Integer): void</text><text fill="#000000" font-family="sans-serif" font-size="14" lengthAdjust="spacing" textLength="272.7061" x="2075.4" y="786.6107">+generateReport(): Map&lt;String, Any&gt;</text></g><!--class Season--><g class="entity" data-entity="Season" data-source-line="77" data-uid="ent0009" id="entity_Season"><rect fill="#F1F1F1" height="162.0781" rx="2.5" ry="2.5" style="stroke:#181818;stroke-width:0.5;" width="290.5166" x="2065.05" y="887.21"/><ellipse cx="2180.6525" cy="903.21" fill="#ADD1B2" rx="11" ry="11" style="stroke:#181818;stroke-width:1;"/><path d="M2183.6213,908.8506 Q2183.0432,909.1475 2182.4025,909.2881 Q2181.7619,909.4444 2181.0588,909.4444 Q2178.5588,909.4444 2177.2307,907.8037 Q2175.9182,906.1475 2175.9182,903.0225 Q2175.9182,899.8975 2177.2307,898.2412 Q2178.5588,896.585 2181.0588,896.585 Q2181.7619,896.585 2182.4025,896.7412 Q2183.0588,896.8975 2183.6213,897.1944 L2183.6213,899.9131 Q2182.9963,899.335 2182.4025,899.0694 Q2181.8088,898.7881 2181.1838,898.7881 Q2179.84,898.7881 2179.1525,899.8662 Q2178.465,900.9287 2178.465,903.0225 Q2178.465,905.1162 2179.1525,906.1944 Q2179.84,907.2569 2181.1838,907.2569 Q2181.8088,907.2569 2182.4025,906.9912 Q2182.9963,906.71 2183.6213,906.1319 L2183.6213,908.8506 Z " fill="#000000"/><text fill="#000000" font-family="sans-serif" font-size="14" lengthAdjust="spacing" textLength="50.8115" x="2201.1525" y="908.0567">Season</text><line style="stroke:#181818;stroke-width:0.5;" x1="2066.05" x2="2354.5666" y1="919.21" y2="919.21"/><text fill="#000000" font-family="sans-serif" font-size="14" lengthAdjust="spacing" textLength="118.2344" x="2071.05" y="936.2051">-seasonId: String</text><text fill="#000000" font-family="sans-serif" font-size="14" lengthAdjust="spacing" textLength="95.8125" x="2071.05" y="952.502">-year: Integer</text><text fill="#000000" font-family="sans-serif" font-size="14" lengthAdjust="spacing" textLength="103.4551" x="2071.05" y="968.7989">-league: String</text><text fill="#000000" font-family="sans-serif" font-size="14" lengthAdjust="spacing" textLength="113.75" x="2071.05" y="985.0957">-startDate: Date</text><text fill="#000000" font-family="sans-serif" font-size="14" lengthAdjust="spacing" textLength="107.5156" x="2071.05" y="1001.3926">-endDate: Date</text><line style="stroke:#181818;stroke-width:0.5;" x1="2066.05" x2="2354.5666" y1="1008.6944" y2="1008.6944"/><text fill="#000000" font-family="sans-serif" font-size="14" lengthAdjust="spacing" textLength="204.0869" x="2071.05" y="1025.6895">+getMatches(): List&lt;Match&gt;</text><text fill="#000000" font-family="sans-serif" font-size="14" lengthAdjust="spacing" textLength="278.5166" x="2071.05" y="1041.9864">+getStandings(): Map&lt;String, Integer&gt;</text></g><!--class TrainingSession--><g class="entity" data-entity="TrainingSession" data-source-line="87" data-uid="ent0010" id="entity_TrainingSession"><rect fill="#F1F1F1" height="162.0781" rx="2.5" ry="2.5" style="stroke:#181818;stroke-width:0.5;" width="424.4395" x="1610.09" y="591.09"/><ellipse cx="1762.7023" cy="607.09" fill="#ADD1B2" rx="11" ry="11" style="stroke:#181818;stroke-width:1;"/><path d="M1765.6711,612.7306 Q1765.0929,613.0275 1764.4523,613.1681 Q1763.8117,613.3244 1763.1086,613.3244 Q1760.6086,613.3244 1759.2804,611.6837 Q1757.9679,610.0275 1757.9679,606.9025 Q1757.9679,603.7775 1759.2804,602.1212 Q1760.6086,600.465 1763.1086,600.465 Q1763.8117,600.465 1764.4523,600.6212 Q1765.1086,600.7775 1765.6711,601.0744 L1765.6711,603.7931 Q1765.0461,603.215 1764.4523,602.9494 Q1763.8586,602.6681 1763.2336,602.6681 Q1761.8898,602.6681 1761.2023,603.7462 Q1760.5148,604.8087 1760.5148,606.9025 Q1760.5148,608.9962 1761.2023,610.0744 Q1761.8898,611.1369 1763.2336,611.1369 Q1763.8586,611.1369 1764.4523,610.8712 Q1765.0461,610.59 1765.6711,610.0119 L1765.6711,612.7306 Z " fill="#000000"/><text fill="#000000" font-family="sans-serif" font-size="14" lengthAdjust="spacing" textLength="110.7148" x="1783.2023" y="611.9367">TrainingSession</text><line style="stroke:#181818;stroke-width:0.5;" x1="1611.09" x2="2033.5295" y1="623.09" y2="623.09"/><text fill="#000000" font-family="sans-serif" font-size="14" lengthAdjust="spacing" textLength="120.8389" x="1616.09" y="640.0851">-sessionId: String</text><text fill="#000000" font-family="sans-serif" font-size="14" lengthAdjust="spacing" textLength="132.9658" x="1616.09" y="656.382">-sessionDate: Date</text><text fill="#000000" font-family="sans-serif" font-size="14" lengthAdjust="spacing" textLength="135.4268" x="1616.09" y="672.6789">-sessionTime: Time</text><text fill="#000000" font-family="sans-serif" font-size="14" lengthAdjust="spacing" textLength="111.5488" x="1616.09" y="688.9757">-location: String</text><text fill="#000000" font-family="sans-serif" font-size="14" lengthAdjust="spacing" textLength="125.8838" x="1616.09" y="705.2726">-focusArea: String</text><line style="stroke:#181818;stroke-width:0.5;" x1="1611.09" x2="2033.5295" y1="712.5744" y2="712.5744"/><text fill="#000000" font-family="sans-serif" font-size="14" lengthAdjust="spacing" textLength="137.9424" x="1616.09" y="729.5695">-teamId: String (FK)</text><text fill="#000000" font-family="sans-serif" font-size="14" lengthAdjust="spacing" textLength="412.4395" x="1616.09" y="745.8664">+recordAttendance(player: Player, present: Boolean): void</text></g><!--class Stadium--><g class="entity" data-entity="Stadium" data-source-line="97" data-uid="ent0011" id="entity_Stadium"><rect fill="#F1F1F1" height="129.4844" rx="2.5" ry="2.5" style="stroke:#181818;stroke-width:0.5;" width="242.5488" x="2432.04" y="903.5"/><ellipse cx="2519.9433" cy="919.5" fill="#ADD1B2" rx="11" ry="11" style="stroke:#181818;stroke-width:1;"/><path d="M2522.9121,925.1406 Q2522.3339,925.4375 2521.6933,925.5781 Q2521.0527,925.7344 2520.3496,925.7344 Q2517.8496,925.7344 2516.5214,924.0937 Q2515.2089,922.4375 2515.2089,919.3125 Q2515.2089,916.1875 2516.5214,914.5312 Q2517.8496,912.875 2520.3496,912.875 Q2521.0527,912.875 2521.6933,913.0312 Q2522.3496,913.1875 2522.9121,913.4844 L2522.9121,916.2031 Q2522.2871,915.625 2521.6933,915.3594 Q2521.0996,915.0781 2520.4746,915.0781 Q2519.1308,915.0781 2518.4433,916.1562 Q2517.7558,917.2187 2517.7558,919.3125 Q2517.7558,921.4062 2518.4433,922.4844 Q2519.1308,923.5469 2520.4746,923.5469 Q2521.0996,923.5469 2521.6933,923.2812 Q2522.2871,923 2522.9121,922.4219 L2522.9121,925.1406 Z " fill="#000000"/><text fill="#000000" font-family="sans-serif" font-size="14" lengthAdjust="spacing" textLength="58.2422" x="2540.4433" y="924.3467">Stadium</text><line style="stroke:#181818;stroke-width:0.5;" x1="2433.04" x2="2673.5888" y1="935.5" y2="935.5"/><text fill="#000000" font-family="sans-serif" font-size="14" lengthAdjust="spacing" textLength="125.665" x="2438.04" y="952.4951">-stadiumId: String</text><text fill="#000000" font-family="sans-serif" font-size="14" lengthAdjust="spacing" textLength="95.7031" x="2438.04" y="968.792">-name: String</text><text fill="#000000" font-family="sans-serif" font-size="14" lengthAdjust="spacing" textLength="123.6826" x="2438.04" y="985.0889">-capacity: Integer</text><text fill="#000000" font-family="sans-serif" font-size="14" lengthAdjust="spacing" textLength="111.3096" x="2438.04" y="1001.3857">-address: String</text><line style="stroke:#181818;stroke-width:0.5;" x1="2433.04" x2="2673.5888" y1="1008.6875" y2="1008.6875"/><text fill="#000000" font-family="sans-serif" font-size="14" lengthAdjust="spacing" textLength="230.5488" x="2438.04" y="1025.6826">+hostMatch(match: Match): void</text></g><!--class Sponsor--><g class="entity" data-entity="Sponsor" data-source-line="105" data-uid="ent0012" id="entity_Sponsor"><rect fill="#F1F1F1" height="194.6719" rx="2.5" ry="2.5" style="stroke:#181818;stroke-width:0.5;" width="444.7559" x="1548.93" y="278.67"/><ellipse cx="1738.6444" cy="294.67" fill="#ADD1B2" rx="11" ry="11" style="stroke:#181818;stroke-width:1;"/><path d="M1741.6131,300.3106 Q1741.035,300.6075 1740.3944,300.7481 Q1739.7537,300.9044 1739.0506,300.9044 Q1736.5506,300.9044 1735.2225,299.2637 Q1733.91,297.6075 1733.91,294.4825 Q1733.91,291.3575 1735.2225,289.7012 Q1736.5506,288.045 1739.0506,288.045 Q1739.7537,288.045 1740.3944,288.2012 Q1741.0506,288.3575 1741.6131,288.6544 L1741.6131,291.3731 Q1740.9881,290.795 1740.3944,290.5294 Q1739.8006,290.2481 1739.1756,290.2481 Q1737.8319,290.2481 1737.1444,291.3262 Q1736.4569,292.3887 1736.4569,294.4825 Q1736.4569,296.5762 1737.1444,297.6544 Q1737.8319,298.7169 1739.1756,298.7169 Q1739.8006,298.7169 1740.3944,298.4512 Q1740.9881,298.17 1741.6131,297.5919 L1741.6131,300.3106 Z " fill="#000000"/><text fill="#000000" font-family="sans-serif" font-size="14" lengthAdjust="spacing" textLength="56.8271" x="1759.1444" y="299.5167">Sponsor</text><line style="stroke:#181818;stroke-width:0.5;" x1="1549.93" x2="1992.6859" y1="310.67" y2="310.67"/><text fill="#000000" font-family="sans-serif" font-size="14" lengthAdjust="spacing" textLength="124.25" x="1554.93" y="327.6651">-sponsorId: String</text><text fill="#000000" font-family="sans-serif" font-size="14" lengthAdjust="spacing" textLength="95.7031" x="1554.93" y="343.962">-name: String</text><text fill="#000000" font-family="sans-serif" font-size="14" lengthAdjust="spacing" textLength="155.9346" x="1554.93" y="360.2589">-contactPerson: String</text><text fill="#000000" font-family="sans-serif" font-size="14" lengthAdjust="spacing" textLength="99.8115" x="1554.93" y="376.5557">-phone: String</text><text fill="#000000" font-family="sans-serif" font-size="14" lengthAdjust="spacing" textLength="94.6094" x="1554.93" y="392.8526">-email: String</text><text fill="#000000" font-family="sans-serif" font-size="14" lengthAdjust="spacing" textLength="161.5059" x="1554.93" y="409.1495">-contractValue: Double</text><text fill="#000000" font-family="sans-serif" font-size="14" lengthAdjust="spacing" textLength="173.4893" x="1554.93" y="425.4464">-contractStartDate: Date</text><text fill="#000000" font-family="sans-serif" font-size="14" lengthAdjust="spacing" textLength="165.8945" x="1554.93" y="441.7432">-contractEndDate: Date</text><line style="stroke:#181818;stroke-width:0.5;" x1="1549.93" x2="1992.6859" y1="449.045" y2="449.045"/><text fill="#000000" font-family="sans-serif" font-size="14" lengthAdjust="spacing" textLength="432.7559" x="1554.93" y="466.0401">+renewContract(newEndDate: Date, newValue: Double): void</text></g><!--class Contract--><g class="entity" data-entity="Contract" data-source-line="117" data-uid="ent0013" id="entity_Contract"><rect fill="#F1F1F1" height="194.6719" rx="2.5" ry="2.5" style="stroke:#181818;stroke-width:0.5;" width="486.6533" x="195.99" y="870.91"/><ellipse cx="404.9544" cy="886.91" fill="#ADD1B2" rx="11" ry="11" style="stroke:#181818;stroke-width:1;"/><path d="M407.9231,892.5506 Q407.345,892.8475 406.7044,892.9881 Q406.0637,893.1444 405.3606,893.1444 Q402.8606,893.1444 401.5325,891.5038 Q400.22,889.8475 400.22,886.7225 Q400.22,883.5975 401.5325,881.9413 Q402.8606,880.285 405.3606,880.285 Q406.0637,880.285 406.7044,880.4413 Q407.3606,880.5975 407.9231,880.8944 L407.9231,883.6131 Q407.2981,883.035 406.7044,882.7694 Q406.1106,882.4881 405.4856,882.4881 Q404.1419,882.4881 403.4544,883.5663 Q402.7669,884.6288 402.7669,886.7225 Q402.7669,888.8163 403.4544,889.8944 Q404.1419,890.9569 405.4856,890.9569 Q406.1106,890.9569 406.7044,890.6913 Q407.2981,890.41 407.9231,889.8319 L407.9231,892.5506 Z " fill="#000000"/><text fill="#000000" font-family="sans-serif" font-size="14" lengthAdjust="spacing" textLength="60.2246" x="425.4544" y="891.7567">Contract</text><line style="stroke:#181818;stroke-width:0.5;" x1="196.99" x2="681.6433" y1="902.91" y2="902.91"/><text fill="#000000" font-family="sans-serif" font-size="14" lengthAdjust="spacing" textLength="127.1621" x="201.99" y="919.9051">-contractId: String</text><text fill="#000000" font-family="sans-serif" font-size="14" lengthAdjust="spacing" textLength="113.75" x="201.99" y="936.202">-startDate: Date</text><text fill="#000000" font-family="sans-serif" font-size="14" lengthAdjust="spacing" textLength="107.5156" x="201.99" y="952.4989">-endDate: Date</text><text fill="#000000" font-family="sans-serif" font-size="14" lengthAdjust="spacing" textLength="106.21" x="201.99" y="968.7957">-salary: Double</text><text fill="#000000" font-family="sans-serif" font-size="14" lengthAdjust="spacing" textLength="108.2402" x="201.99" y="985.0926">-clauses: String</text><line style="stroke:#181818;stroke-width:0.5;" x1="196.99" x2="681.6433" y1="992.3944" y2="992.3944"/><text fill="#000000" font-family="sans-serif" font-size="14" lengthAdjust="spacing" textLength="130.9697" x="201.99" y="1009.3895">-clubId: String (FK)</text><text fill="#000000" font-family="sans-serif" font-size="14" lengthAdjust="spacing" textLength="474.6533" x="201.99" y="1025.6864">-personId: String (FK to Person) ' Generic FK for Player, Coach, Staff</text><text fill="#000000" font-family="sans-serif" font-size="14" lengthAdjust="spacing" textLength="104.7539" x="201.99" y="1041.9832">+renew(): void</text><text fill="#000000" font-family="sans-serif" font-size="14" lengthAdjust="spacing" textLength="130.3887" x="201.99" y="1058.2801">+terminate(): void</text></g><!--reverse link Person to Player--><g class="link" data-entity-1="Person" data-entity-2="Player" data-source-line="130" data-uid="lnk14" id="link_Person_Player"><path codeLine="130" d="M816.31,467.34 C816.31,507.56 816.31,539.95 816.31,582.53" fill="none" id="Person-backto-Player" style="stroke:#181818;stroke-width:1;"/><polygon fill="none" points="816.31,449.34,810.31,467.34,822.31,467.34,816.31,449.34" style="stroke:#181818;stroke-width:1;"/></g><!--reverse link Person to Coach--><g class="link" data-entity-1="Person" data-entity-2="Coach" data-source-line="131" data-uid="lnk15" id="link_Person_Coach"><path codeLine="131" d="M919.6001,435.9974 C1002.2901,483.2274 1111.54,545.61 1204.98,598.98" fill="none" id="Person-backto-Coach" style="stroke:#181818;stroke-width:1;"/><polygon fill="none" points="903.97,427.07,916.6243,441.2075,922.5759,430.7874,903.97,427.07" style="stroke:#181818;stroke-width:1;"/></g><!--reverse link Person to Staff--><g class="link" data-entity-1="Person" data-entity-2="Staff" data-source-line="132" data-uid="lnk16" id="link_Person_Staff"><path codeLine="132" d="M713.1616,437.3262 C628.1516,487.0362 514.45,553.52 422.73,607.15" fill="none" id="Person-backto-Staff" style="stroke:#181818;stroke-width:1;"/><polygon fill="none" points="728.7,428.24,710.1329,432.1467,716.1903,442.5056,728.7,428.24" style="stroke:#181818;stroke-width:1;"/></g><!--link Club to Team--><g class="link" data-entity-1="Club" data-entity-2="Team" data-source-line="135" data-uid="lnk17" id="link_Club_Team"><path codeLine="135" d="M1331.31,201.93 C1331.31,229.59 1331.31,259.59 1331.31,286.72" fill="none" id="Club-Team" style="stroke:#181818;stroke-width:1;"/><polygon fill="#000000" points="1336.31,245.2364,1339.2489,236.1913,1333.3711,236.1913,1336.31,245.2364" style="stroke:#000000;stroke-width:1;"/><text fill="#000000" font-family="sans-serif" font-size="13" lengthAdjust="spacing" textLength="59.8584" x="1345.31" y="244.7369">manages</text><text fill="#000000" font-family="sans-serif" font-size="13" lengthAdjust="spacing" textLength="8.271" x="1323.0259" y="221.7196">1</text><text fill="#000000" font-family="sans-serif" font-size="13" lengthAdjust="spacing" textLength="23.0356" x="1307.3586" y="275.7772">0..*</text></g><!--link Club to Staff--><g class="link" data-entity-1="Club" data-entity-2="Staff" data-source-line="136" data-uid="lnk18" id="link_Club_Staff"><path codeLine="136" d="M1190.69,115.22 C1043.99,131.09 812.15,172.24 642.31,278.67 C508.4,362.59 401.84,519.18 349.2,607.06" fill="none" id="Club-Staff" style="stroke:#181818;stroke-width:1;"/><polygon fill="#000000" points="642.9933,378.5995,652.2853,376.5725,649.3193,371.4979,642.9933,378.5995" style="stroke:#000000;stroke-width:1;"/><text fill="#000000" font-family="sans-serif" font-size="13" lengthAdjust="spacing" textLength="54.9453" x="656.31" y="380.5769">employs</text><text fill="#000000" font-family="sans-serif" font-size="13" lengthAdjust="spacing" textLength="8.271" x="1174.7883" y="128.2959">1</text><text fill="#000000" font-family="sans-serif" font-size="13" lengthAdjust="spacing" textLength="23.0356" x="328.8692" y="596.1977">0..*</text></g><!--link Club to Sponsor--><g class="link" data-entity-1="Club" data-entity-2="Sponsor" data-source-line="137" data-uid="lnk19" id="link_Club_Sponsor"><path codeLine="137" d="M1471.74,191.41 C1516.89,219.07 1567.2,249.91 1613.5,278.29" fill="none" id="Club-Sponsor" style="stroke:#181818;stroke-width:1;"/><polygon fill="#000000" points="1573.5731,242.8491,1567.3968,235.6169,1564.3254,240.6285,1573.5731,242.8491" style="stroke:#000000;stroke-width:1;"/><text fill="#000000" font-family="sans-serif" font-size="13" lengthAdjust="spacing" textLength="22.9785" x="1578.31" y="244.7369">has</text><text fill="#000000" font-family="sans-serif" font-size="13" lengthAdjust="spacing" textLength="8.271" x="1479.6457" y="192.8322">1</text><text fill="#000000" font-family="sans-serif" font-size="13" lengthAdjust="spacing" textLength="23.0356" x="1578.0678" y="267.635">0..*</text></g><!--link Club to Stadium--><g class="link" data-entity-1="Club" data-entity-2="Stadium" data-source-line="138" data-uid="lnk20" id="link_Club_Stadium"><path codeLine="138" d="M1471.96,107.67 C1735.17,120.68 2296.47,191.36 2528.31,550.35 C2597.84,658 2583.28,815.73 2567.6,903.07" fill="none" id="Club-Stadium" style="stroke:#181818;stroke-width:1;"/><polygon fill="#000000" points="2514.3562,514.8538,2508.7631,507.1617,2505.31,511.9183,2514.3562,514.8538" style="stroke:#000000;stroke-width:1;"/><text fill="#000000" font-family="sans-serif" font-size="13" lengthAdjust="spacing" textLength="67.7612" x="2519.31" y="516.4169">owns/uses</text><text fill="#000000" font-family="sans-serif" font-size="13" lengthAdjust="spacing" textLength="8.271" x="1479.4253" y="104.5255">1</text><text fill="#000000" font-family="sans-serif" font-size="13" lengthAdjust="spacing" textLength="8.271" x="2560.6747" y="892.6494">1</text></g><!--link Club to Contract--><g class="link" data-entity-1="Club" data-entity-2="Contract" data-source-line="139" data-uid="lnk21" id="link_Club_Contract"><path codeLine="139" d="M1190.62,113.48 C1009.25,128.18 687.25,168.7 435.31,278.67 C248.01,360.43 156.75,368.08 64.31,550.35 C15.35,646.89 6,702.71 64.31,793.91 C95.32,842.4 143.74,877.52 195.6,902.89" fill="none" id="Club-Contract" style="stroke:#181818;stroke-width:1;"/><polygon fill="#000000" points="91.393,515.024,100.3055,511.7047,96.6523,507.1,91.393,515.024" style="stroke:#000000;stroke-width:1;"/><text fill="#000000" font-family="sans-serif" font-size="13" lengthAdjust="spacing" textLength="40.168" x="104.31" y="516.4169">issues</text><text fill="#000000" font-family="sans-serif" font-size="13" lengthAdjust="spacing" textLength="8.271" x="1174.7145" y="110.6404">1</text><text fill="#000000" font-family="sans-serif" font-size="13" lengthAdjust="spacing" textLength="23.0356" x="165.0238" y="897.796">0..*</text></g><!--link Team to Player--><g class="link" data-entity-1="Team" data-entity-2="Player" data-source-line="141" data-uid="lnk22" id="link_Team_Player"><path codeLine="141" d="M1176.1,465.65 C1111.24,502.7 1036.04,545.64 971.21,582.66" fill="none" id="Team-Player" style="stroke:#181818;stroke-width:1;"/><polygon fill="#000000" points="1105.9681,514.396,1115.2801,512.4625,1112.3652,507.3583,1105.9681,514.396" style="stroke:#000000;stroke-width:1;"/><text fill="#000000" font-family="sans-serif" font-size="13" lengthAdjust="spacing" textLength="53.8726" x="1119.31" y="516.4169">includes</text><text fill="#000000" font-family="sans-serif" font-size="13" lengthAdjust="spacing" textLength="8.271" x="1155.9204" y="485.1595">1</text><text fill="#000000" font-family="sans-serif" font-size="13" lengthAdjust="spacing" textLength="23.0356" x="959.6384" y="572.0051">0..*</text></g><!--link Team to Coach--><g class="link" data-entity-1="Team" data-entity-2="Coach" data-source-line="142" data-uid="lnk23" id="link_Team_Coach"><path codeLine="142" d="M1331.31,465.65 C1331.31,508.28 1331.31,558.72 1331.31,598.96" fill="none" id="Team-Coach" style="stroke:#181818;stroke-width:1;"/><polygon fill="#000000" points="1336.31,516.9164,1339.2489,507.8713,1333.3711,507.8713,1336.31,516.9164" style="stroke:#000000;stroke-width:1;"/><text fill="#000000" font-family="sans-serif" font-size="13" lengthAdjust="spacing" textLength="36.4736" x="1345.31" y="516.4169">ledBy</text><text fill="#000000" font-family="sans-serif" font-size="13" lengthAdjust="spacing" textLength="8.271" x="1323.0137" y="485.1595">1</text><text fill="#000000" font-family="sans-serif" font-size="13" lengthAdjust="spacing" textLength="8.271" x="1322.9296" y="588.0924">1</text></g><!--link Team to TrainingSession--><g class="link" data-entity-1="Team" data-entity-2="TrainingSession" data-source-line="143" data-uid="lnk24" id="link_Team_TrainingSession"><path codeLine="143" d="M1479.29,465.65 C1545.65,505.4 1623.36,551.95 1688.01,590.68" fill="none" id="Team-TrainingSession" style="stroke:#181818;stroke-width:1;"/><polygon fill="#000000" points="1570.5993,514.4858,1564.3502,507.3165,1561.3296,512.3589,1570.5993,514.4858" style="stroke:#000000;stroke-width:1;"/><text fill="#000000" font-family="sans-serif" font-size="13" lengthAdjust="spacing" textLength="58.8491" x="1575.31" y="516.4169">conducts</text><text fill="#000000" font-family="sans-serif" font-size="13" lengthAdjust="spacing" textLength="8.271" x="1482.3234" y="485.1595">1</text><text fill="#000000" font-family="sans-serif" font-size="13" lengthAdjust="spacing" textLength="23.0356" x="1652.4819" y="580.1085">0..*</text></g><!--link Team to Match--><g class="link" data-entity-1="Team" data-entity-2="Match" data-source-line="144" data-uid="lnk25" id="link_Team_Match"><path codeLine="144" d="M1508.22,465.6 C1515.95,468.4 1523.67,471 1531.31,473.35 C1755.08,542.03 1829.27,479.35 2052.31,550.35 C2057.83,552.1 2063.38,553.98 2068.94,555.95" fill="none" id="Team-Match" style="stroke:#181818;stroke-width:1;"/><polygon fill="#000000" points="1933.2463,512.7118,1924.784,508.3714,1923.8489,514.1744,1933.2463,512.7118" style="stroke:#000000;stroke-width:1;"/><text fill="#000000" font-family="sans-serif" font-size="13" lengthAdjust="spacing" textLength="89.1909" x="1937.31" y="516.4169">participatesIn</text><text fill="#000000" font-family="sans-serif" font-size="13" lengthAdjust="spacing" textLength="8.271" x="1514.0091" y="485.4092">1</text><text fill="#000000" font-family="sans-serif" font-size="13" lengthAdjust="spacing" textLength="23.0356" x="2038.2996" y="548.9608">0..*</text></g><!--link Match to Stadium--><g class="link" data-entity-1="Match" data-entity-2="Stadium" data-source-line="146" data-uid="lnk26" id="link_Match_Stadium"><path codeLine="146" d="M2398.42,794.03 C2431.86,831.42 2467.38,871.14 2495.96,903.1" fill="none" id="Match-Stadium" style="stroke:#181818;stroke-width:1;"/><polygon fill="#000000" points="2445.643,836.2034,2441.8042,827.5021,2437.4228,831.4203,2445.643,836.2034" style="stroke:#000000;stroke-width:1;"/><text fill="#000000" font-family="sans-serif" font-size="13" lengthAdjust="spacing" textLength="42.0913" x="2451.31" y="836.9769">heldAt</text><text fill="#000000" font-family="sans-serif" font-size="13" lengthAdjust="spacing" textLength="8.271" x="2396.7726" y="813.9862">1</text><text fill="#000000" font-family="sans-serif" font-size="13" lengthAdjust="spacing" textLength="8.271" x="2481.2642" y="892.2289">1</text></g><!--link Match to Season--><g class="link" data-entity-1="Match" data-entity-2="Season" data-source-line="147" data-uid="lnk27" id="link_Match_Season"><path codeLine="147" d="M2279.77,794.11 C2277.05,810.01 2273.62,825.96 2269.31,840.91 C2264.92,856.14 2258.91,871.85 2252.4,886.8" fill="none" id="Match-Season" style="stroke:#181818;stroke-width:1;"/><polygon fill="#000000" points="2275.894,837.2717,2281.2742,829.4292,2275.6369,827.7646,2275.894,837.2717" style="stroke:#000000;stroke-width:1;"/><text fill="#000000" font-family="sans-serif" font-size="13" lengthAdjust="spacing" textLength="66.9741" x="2286.31" y="836.9769">belongsTo</text><text fill="#000000" font-family="sans-serif" font-size="13" lengthAdjust="spacing" textLength="8.271" x="2270.8923" y="814.0711">1</text><text fill="#000000" font-family="sans-serif" font-size="13" lengthAdjust="spacing" textLength="8.271" x="2247.6851" y="876.2285">1</text></g><!--link Season to Match--><g class="link" data-entity-1="Season" data-entity-2="Match" data-source-line="149" data-uid="lnk28" id="link_Season_Match"><path codeLine="149" d="M2187.88,887.06 C2185.24,866.22 2185.31,843.99 2191.31,823.91 C2194.32,813.86 2198.23,803.85 2202.76,794.06" fill="none" id="Season-Match" style="stroke:#181818;stroke-width:1;"/><polygon fill="#000000" points="2197.1,827.5392,2192.7689,836.0064,2198.5729,836.935,2197.1,827.5392" style="stroke:#000000;stroke-width:1;"/><text fill="#000000" font-family="sans-serif" font-size="13" lengthAdjust="spacing" textLength="55.0278" x="2205.31" y="836.9769">contains</text><text fill="#000000" font-family="sans-serif" font-size="13" lengthAdjust="spacing" textLength="8.271" x="2177.5383" y="876.2339">1</text><text fill="#000000" font-family="sans-serif" font-size="13" lengthAdjust="spacing" textLength="23.0356" x="2173.7253" y="814.018">0..*</text></g><!--link Player to Contract--><g class="link" data-entity-1="Player" data-entity-2="Contract" data-source-line="151" data-uid="lnk29" id="link_Player_Contract"><path codeLine="151" d="M702.69,761.77 C658.68,796.11 608.16,835.52 563.22,870.58" fill="none" id="Player-Contract" style="stroke:#181818;stroke-width:1;"/><polygon fill="#000000" points="618.3678,835.552,627.3071,832.3054,623.6915,827.6711,618.3678,835.552" style="stroke:#000000;stroke-width:1;"/><text fill="#000000" font-family="sans-serif" font-size="13" lengthAdjust="spacing" textLength="22.9785" x="631.31" y="836.9769">has</text><text fill="#000000" font-family="sans-serif" font-size="13" lengthAdjust="spacing" textLength="8.271" x="685.6949" y="781.2795">1</text><text fill="#000000" font-family="sans-serif" font-size="13" lengthAdjust="spacing" textLength="23.0356" x="548.4759" y="859.9286">0..*</text></g><!--link Coach to Contract--><g class="link" data-entity-1="Coach" data-entity-2="Contract" data-source-line="152" data-uid="lnk30" id="link_Coach_Contract"><path codeLine="152" d="M1186.1,745.49 C1148.86,762.61 1108.53,779.93 1070.31,793.91 C944.82,839.82 801.43,880.14 683.09,910.31" fill="none" id="Coach-Contract" style="stroke:#181818;stroke-width:1;"/><polygon fill="#000000" points="969.5586,834.0333,979.0691,834.0097,977.2389,828.424,969.5586,834.0333" style="stroke:#000000;stroke-width:1;"/><text fill="#000000" font-family="sans-serif" font-size="13" lengthAdjust="spacing" textLength="22.9785" x="983.31" y="836.9769">has</text><text fill="#000000" font-family="sans-serif" font-size="13" lengthAdjust="spacing" textLength="8.271" x="1164.3572" y="765.0172">1</text><text fill="#000000" font-family="sans-serif" font-size="13" lengthAdjust="spacing" textLength="23.0356" x="690.669" y="905.4362">0..*</text></g><!--link Staff to Contract--><g class="link" data-entity-1="Staff" data-entity-2="Contract" data-source-line="153" data-uid="lnk31" id="link_Staff_Contract"><path codeLine="153" d="M340.81,737.31 C357.5,776.27 379.13,826.75 397.86,870.49" fill="none" id="Staff-Contract" style="stroke:#181818;stroke-width:1;"/><polygon fill="#000000" points="391.2788,837.0725,390.4187,827.6009,385.0157,829.9153,391.2788,837.0725" style="stroke:#000000;stroke-width:1;"/><text fill="#000000" font-family="sans-serif" font-size="13" lengthAdjust="spacing" textLength="22.9785" x="398.31" y="836.9769">has</text><text fill="#000000" font-family="sans-serif" font-size="13" lengthAdjust="spacing" textLength="8.271" x="335.247" y="756.8797">1</text><text fill="#000000" font-family="sans-serif" font-size="13" lengthAdjust="spacing" textLength="23.0356" x="370.9723" y="859.832">0..*</text></g><!--SRC=[fLTBR-Cs4BxxLn2-n6cTT7ChX210iccsGPFjOkssPveSMznGf4fI2Rnj_tk73qaM9JTPD8VO70x9cM- -UTW-2LLJGol29BNssZaZDes3UwRLIdm5ycv6DzOPobpK89_0MAt8NpE2VsUa3ijxNf0L7bMx9DuAOzr7Ma4cnokcn9mw-7Lx8umh2tABYoHNr0cjg1HkFpZnFTc1kskaz7SjJhkzVsQpPAMaUp2zbM7PMqaMTx-GhT5LSkSqwJcWrL2htQcr5TwMVW_ET-TBSgVD2pLyIHu5tmgG7CoItC8MLFZsGLFv180ejHTzmGTX_x6fDc0ASgySxC2alOgQ9t2_KzaWGBUwsSWM2EkeQsp- -3LpuXcMUCkNnW0QyQ2f0dwQCCAm2UNHUTQ29vb7uf4wLdRo3hFtchAoWupvrVz1p6W9kS4_0-Nn7JJUMe5kATSAUgoYfBr82WRAmWCyWynOW2pb3NDhxoXACryjI61kzMT3-TZRbQFRRUUjzQlNlMMosRpTsrlDd4OIV2htLcXNWg4rkhmaAwOR_BZc5PhjimlLseiuO3ww2fJBV4LSjjfKjuqJO2UYXwRrmHlOsINJAE_GRIwQ8m7SwaPnbFby76Jbfk6OVXb39T1T0vdD5LLq1pT1Fm-EsAbLhPNLPc7Z9nwENuQQU7QDB0i-Fo1SbtvrrNlkbvtdGpw-6hP3JDgmhK09RSWZg2NvxUB79Vb3OpXExEbnJp5iubdOW_gGRAUSnrAqY2MeI9LfwA61IZ_36nGjAu4t4Zh2Mx3nrLQoYe8HFKBEToXLVZM2gKG_rqVpcRxG_V7TSEE8AK6w5XvZ__yjhFD6O7uOo8kZVtzoW-cg1ZUepkr3G0VDgN_7OuvtyN3XOlpcSkAvd9KAyzd1PwYr2UH-fFLbV0TJM-qF6BeATlJ59ZChYVT0HnrXack8dt4ZhB7ZPBAGEY7mq2TFM5_r-rW7GvRRt8Lao66Y3Jbsu4zOZnmwtXlIYP4FIJvYZDICJiHtgrbZhmtGBEjYR76OGKoeOf3br9BK1coei3SQwpPLKzt1K_ImFmmfUxocCbfJ5WQMZB-SuwisCxNKDePe4NAbY8awjYSMnjwUk7wJFLev7DzY8ylswbAhN1ygAkJ47Nu6d1fDshtL92lRtPycs6amXLxU9uK5VXyeBGbA1WzEJ2pnxC7G4WNVq07o0JQqVgVRnazEo0UVwO8HFn9W25eEfQabp17Vc9YeIIKr-nn9IHlCW16P4OUiUJemE3hWTOTpm0aI3cSCuJpbPsbEl_pxx2oPF105wmUIw0ZUyXbaI3PRYjhEmbmnlvWJL9c_Ep__RXuRRf6QkoLNKpfnl2gGJRNK-sDAYTK5AUb8vMBUPM51z8koFtXmfY_gY50GOMqJr6R1pA5U-bc0MWePmOFUGErYdiRW0aillzdd-mc0h10MxI1gf_LZyos8d-m44pK6pjuhRsFScNIvn1yJrmwLnZgndHHa0r9ZvLvhVrMIJhySYe1G0PS4mb44Kom23AyenIZ_jzA_]--></g></svg>